<svg xmlns="http://www.w3.org/2000/svg" width="22.828" height="22.828" viewBox="0 0 22.828 22.828">
  <g id="FeatherIconSet_Feather_Controls_eye-off" data-name="FeatherIconSet/Feather_Controls/eye-off" transform="translate(0.414 0.414)">
    <g id="eye-off" transform="translate(1 1)">
      <path id="Shape" d="M10,14.546a8.725,8.725,0,0,1-4.247-1.136,12.887,12.887,0,0,1-3.139-2.5A17.4,17.4,0,0,1,0,7.273a16.658,16.658,0,0,1,4.6-5.4L8.073,5.346A2.727,2.727,0,1,0,11.927,9.2L15.4,12.673A9.09,9.09,0,0,1,10,14.546Zm8.036-4.373h0L8.091.218A8.3,8.3,0,0,1,9.979,0H10a8.725,8.725,0,0,1,4.247,1.136,12.887,12.887,0,0,1,3.139,2.5A17.4,17.4,0,0,1,20,7.273a16.756,16.756,0,0,1-1.963,2.9Z" transform="translate(0 2.727)" fill="none" stroke="#bcaa9a" stroke-linecap="round" stroke-linejoin="round" stroke-miterlimit="10" stroke-width="2"/>
      <path id="Path" d="M0,0,20,20" fill="none" stroke="#bcaa9a" stroke-linecap="round" stroke-linejoin="round" stroke-miterlimit="10" stroke-width="2"/>
    </g>
  </g>
</svg>
