<svg xmlns="http://www.w3.org/2000/svg" width="20.87" height="20" viewBox="0 0 20.87 20">
  <path id="line" d="M10.435.5C4.683.5,0,4.324,0,9.025c0,4.21,3.713,7.737,8.726,8.407.34.072.8.226.92.517a2.151,2.151,0,0,1,.033.945l-.143.892c-.039.263-.209,1.037.912.564a33.646,33.646,0,0,0,8.205-6.1A7.566,7.566,0,0,0,20.87,9.025C20.87,4.324,16.187.5,10.435.5ZM6.351,11.819H4.276a.553.553,0,0,1-.548-.55V7.094a.548.548,0,1,1,1.1,0v3.624H6.351a.551.551,0,0,1,0,1.1Zm2.144-.55a.547.547,0,1,1-1.094,0V7.094a.547.547,0,1,1,1.094,0Zm4.992,0a.551.551,0,0,1-.376.522.562.562,0,0,1-.173.027A.537.537,0,0,1,12.5,11.6L10.371,8.7v2.572a.547.547,0,1,1-1.093,0V7.094a.548.548,0,0,1,.374-.521.506.506,0,0,1,.169-.029.561.561,0,0,1,.43.223l2.141,2.914V7.094a.548.548,0,1,1,1.1,0ZM16.84,8.63a.552.552,0,0,1,0,1.1H15.313v.984H16.84a.551.551,0,0,1,0,1.1H14.765a.551.551,0,0,1-.545-.55V7.094a.551.551,0,0,1,.548-.551h2.075a.551.551,0,0,1,0,1.1H15.313V8.63Z" transform="translate(0 -0.5)" fill="#bcaa9a"/>
</svg>
