<svg xmlns="http://www.w3.org/2000/svg" width="50.874" height="20" viewBox="0 0 50.874 20">
  <g id="圖層_2" data-name="圖層 2" transform="translate(0 0.003)">
    <g id="圖層_1" data-name="圖層 1" transform="translate(0 -0.003)">
      <path id="Path_138" data-name="Path 138" d="M0,18.793,4.7,1.431S9.7-2.4,13.51,2.46c3.21,4.94-3.45,7.729-3.45,7.729l4.53,8.234s-.57,2.449-2.42.772L7,9.427s6.16-1.5,4.89-5.146c0,0-1.36-3.026-5.27-1.626L2,19.627a1.137,1.137,0,0,1-1.275.283A1.2,1.2,0,0,1,0,18.793Z" transform="translate(0 0.003)" fill="#bcaa9a"/>
      <path id="Path_139" data-name="Path 139" d="M17.53,18.2,22.1,1.073l.08-.1a1.322,1.322,0,0,1,1.86.1c.56,3.029,3.7,13.9,4.46,16.425s-1.3,3.421-2.07.711S23,5.988,23,5.988s-3.29,12.427-3.55,13.035a1.087,1.087,0,0,1-1.246.287A1.146,1.146,0,0,1,17.52,18.2" transform="translate(0.66 0.003)" fill="#bcaa9a"/>
      <path id="Path_140" data-name="Path 140" d="M49.43,2.048,44.86,19.184l-.09.113a1.322,1.322,0,0,1-1.86-.113c-.55-3.029-3.7-13.9-4.45-16.415s1.3-3.411,2.07-.721,3.41,12.211,3.41,12.211S47.23,1.842,47.49,1.234A1.1,1.1,0,0,1,48.738.953a1.156,1.156,0,0,1,.692,1.106" transform="translate(1.443 0.003)" fill="#bcaa9a"/>
      <path id="Path_141" data-name="Path 141" d="M40.4,1.879,35.83,19l-.09.1a1.322,1.322,0,0,1-1.86-.1c-.55-3.04-3.7-13.859-4.45-16.414s1.3-3.421,2.07-.711,3.42,12.21,3.42,12.21S38.21,1.663,38.46,1.024a1.088,1.088,0,0,1,1.255-.3A1.147,1.147,0,0,1,40.4,1.848" transform="translate(1.103 0.003)" fill="#bcaa9a"/>
    </g>
  </g>
</svg>
