<?xml version="1.0" encoding="utf-8"?>
<!-- Generator: Adobe Illustrator 25.3.1, SVG Export Plug-In . SVG Version: 6.00 Build 0)  -->
<svg version="1.1" id="圖層_1" xmlns="http://www.w3.org/2000/svg" xmlns:xlink="http://www.w3.org/1999/xlink" x="0px" y="0px"
	 viewBox="0 0 470 92" style="enable-background:new 0 0 470 92;" xml:space="preserve">
<style type="text/css">
	.st0{fill:#BAA899;}
	.st1{fill:none;stroke:#BAA899;}
	.st2{font-family:'NotoSansTC-Medium-83pv-RKSJ-H';}
	.st3{font-size:12px;}
	.st4{fill:#FBFBFB;}
	.st5{font-size:20px;}
</style>
<g id="グループ_330" transform="translate(-726 -200)">
	<rect id="長方形_7" x="962.5" y="225.5" class="st0" width="200" height="10"/>
	<rect id="長方形_6" x="756.5" y="225.5" class="st0" width="200" height="10"/>
	<g id="楕円形_1" transform="translate(726 200)">
		<circle class="st0" cx="30.5" cy="30.5" r="30"/>
		<circle class="st1" cx="30.5" cy="30.5" r="29.5"/>
	</g>
	<g id="楕円形_2" transform="translate(930 200)">
		<circle class="st0" cx="30.5" cy="30.5" r="30"/>
		<circle class="st1" cx="30.5" cy="30.5" r="29.5"/>
	</g>
	<g id="楕円形_3" transform="translate(1135 200)">
		<circle class="st0" cx="30.5" cy="30.5" r="30"/>
		<circle class="st1" cx="30.5" cy="30.5" r="29.5"/>
	</g>
	<text transform="matrix(1 0 0 1 738.5 289.5)" class="st0 st2 st3">購物車</text>
	<text transform="matrix(1 0 0 1 930.5 289.5)" class="st0 st2 st3">運送及付款</text>
	<text transform="matrix(1 0 0 1 1141.5 289.5)" class="st0 st2 st3">最後確認</text>
	<text transform="matrix(1 0 0 1 751.5 238.5)" class="st4 st2 st5">1</text>
	<text transform="matrix(1 0 0 1 955.5 238.5)" class="st4 st2 st5">2</text>
	<text transform="matrix(1 0 0 1 1160.5 238.5)" class="st4 st2 st5">3</text>
</g>
</svg>
