<?xml version="1.0" encoding="utf-8"?>
<!-- Generator: Adobe Illustrator 25.3.1, SVG Export Plug-In . SVG Version: 6.00 Build 0)  -->
<svg version="1.1" id="圖層_1" xmlns="http://www.w3.org/2000/svg" xmlns:xlink="http://www.w3.org/1999/xlink" x="0px" y="0px"
	 viewBox="0 0 470 92" style="enable-background:new 0 0 470 92;" xml:space="preserve">
<style type="text/css">
	.st0{fill:#EAE6E2;}
	.st1{fill:#BAA899;}
	.st2{fill:none;stroke:#BAA899;}
	.st3{font-family:'NotoSansTC-Medium-83pv-RKSJ-H';}
	.st4{font-size:12px;}
	.st5{fill:#FBFBFB;}
	.st6{font-size:20px;}
</style>
<g id="グループ_321" transform="translate(-726 -200)">
	<rect id="長方形_7" x="961.9" y="225.5" class="st0" width="200" height="10"/>
	<rect id="長方形_6" x="755.9" y="225.5" class="st1" width="200" height="10"/>
	<g id="楕円形_1" transform="translate(726 200)">
		<circle class="st1" cx="29.9" cy="30.5" r="30"/>
		<circle class="st2" cx="29.9" cy="30.5" r="29.5"/>
	</g>
	<g id="楕円形_2" transform="translate(930 200)">
		<circle class="st1" cx="29.9" cy="30.5" r="30"/>
		<circle class="st2" cx="29.9" cy="30.5" r="29.5"/>
	</g>
	<g id="パス_154" transform="translate(1135 200)">
		<path class="st0" d="M29.9,60c-4,0-7.8-0.8-11.5-2.3c-3.5-1.5-6.7-3.6-9.4-6.3S4.2,45.5,2.7,42c-1.5-3.6-2.3-7.5-2.3-11.5
			S1.2,22.7,2.7,19c1.5-3.5,3.6-6.7,6.3-9.4s5.9-4.8,9.4-6.3C22.1,1.8,25.9,1,29.9,1s7.8,0.8,11.5,2.3c3.5,1.5,6.7,3.6,9.4,6.3
			s4.8,5.9,6.3,9.4c1.5,3.6,2.3,7.5,2.3,11.5s-0.8,7.8-2.3,11.5c-1.5,3.5-3.6,6.7-6.3,9.4s-5.9,4.8-9.4,6.3
			C37.8,59.2,33.9,60,29.9,60z"/>
		<path class="st0" d="M29.9,1.5c-3.9,0-7.7,0.8-11.3,2.3c-3.5,1.5-6.6,3.6-9.2,6.2c-2.7,2.7-4.8,5.8-6.2,9.2
			c-1.5,3.6-2.3,7.4-2.3,11.3s0.8,7.7,2.3,11.3c1.5,3.5,3.6,6.6,6.2,9.2c2.7,2.7,5.8,4.8,9.2,6.2c3.6,1.5,7.4,2.3,11.3,2.3
			s7.7-0.8,11.3-2.3c3.5-1.5,6.6-3.6,9.2-6.2c2.7-2.7,4.8-5.8,6.2-9.2c1.5-3.6,2.3-7.4,2.3-11.3s-0.8-7.7-2.3-11.3
			c-1.5-3.5-3.6-6.6-6.2-9.2c-2.7-2.7-5.8-4.8-9.2-6.2C37.6,2.3,33.8,1.5,29.9,1.5 M29.9,0.5c16.6,0,30,13.4,30,30s-13.4,30-30,30
			s-30-13.4-30-30S13.3,0.5,29.9,0.5z"/>
	</g>
	<text transform="matrix(1 0 0 1 737.9111 289.5009)" class="st1 st3 st4">購物車</text>
	<text transform="matrix(1 0 0 1 929.9111 289.5009)" class="st1 st3 st4">運送及付款</text>
	<text transform="matrix(1 0 0 1 1140.9111 289.5009)" class="st1 st3 st4">最後確認</text>
	<text transform="matrix(1 0 0 1 750.9111 238.5008)" class="st5 st3 st6">1</text>
	<text transform="matrix(1 0 0 1 954.9111 238.5008)" class="st5 st3 st6">2</text>
	<text transform="matrix(1 0 0 1 1159.9111 238.5008)" class="st1 st3 st6">3</text>
</g>
</svg>
